<svg width="86" height="86" viewBox="0 0 86 86" fill="none" xmlns="http://www.w3.org/2000/svg">
<circle cx="43" cy="43" r="42.5" fill="white" stroke="#8A5137"/>
<path d="M50.883 28.993L52.0777 29.6464L52.731 30.8411C52.7749 30.9213 52.8395 30.9882 52.9182 31.0349C52.9968 31.0815 53.0865 31.1061 53.1779 31.1061C53.2693 31.1061 53.359 31.0815 53.4377 31.0349C53.5163 30.9882 53.5809 30.9213 53.6248 30.8411L54.2782 29.6464L55.4728 28.993C55.553 28.9492 55.62 28.8846 55.6666 28.8059C55.7132 28.7273 55.7378 28.6376 55.7378 28.5462C55.7378 28.4548 55.7132 28.3651 55.6666 28.2865C55.62 28.2078 55.5531 28.1432 55.4729 28.0994L54.2782 27.4459L53.6248 26.2512C53.5809 26.1711 53.5163 26.1041 53.4377 26.0575C53.359 26.0109 53.2693 25.9863 53.1779 25.9863C53.0865 25.9863 52.9968 26.0109 52.9182 26.0575C52.8395 26.1041 52.7749 26.1711 52.731 26.2512L52.0777 27.4459L50.883 28.0994C50.8028 28.1432 50.7359 28.2079 50.6892 28.2865C50.6426 28.3651 50.618 28.4548 50.618 28.5462C50.618 28.6376 50.6426 28.7274 50.6893 28.806C50.7359 28.8846 50.8028 28.9492 50.883 28.9931V28.993ZM52.6974 28.268C52.7828 28.2213 52.8531 28.151 52.8998 28.0656L53.1779 27.5571L53.456 28.0656C53.5028 28.151 53.573 28.2213 53.6585 28.268L54.167 28.5462L53.6585 28.8243C53.573 28.871 53.5028 28.9413 53.456 29.0268L53.1779 29.5353L52.8998 29.0267C52.8531 28.9413 52.7828 28.871 52.6973 28.8243L52.1888 28.5462L52.6974 28.268Z" fill="#8A5137"/>
<path d="M26.9183 38.1609L28.1129 38.8143L28.7663 40.009C28.8102 40.0892 28.8748 40.1561 28.9534 40.2027C29.0321 40.2493 29.1218 40.2739 29.2132 40.2739C29.3046 40.2739 29.3943 40.2493 29.4729 40.2027C29.5516 40.1561 29.6162 40.0892 29.6601 40.009L30.3134 38.8143L31.5081 38.1609C31.5883 38.117 31.6552 38.0524 31.7018 37.9738C31.7484 37.8952 31.773 37.8055 31.7731 37.7141C31.7731 37.6227 31.7485 37.5329 31.7018 37.4543C31.6552 37.3757 31.5883 37.3111 31.5081 37.2672L30.3135 36.6138L29.6601 35.4191C29.6162 35.3389 29.5516 35.272 29.4729 35.2254C29.3943 35.1788 29.3046 35.1542 29.2132 35.1542C29.1218 35.1542 29.0321 35.1788 28.9535 35.2254C28.8748 35.272 28.8102 35.3389 28.7663 35.4191L28.1129 36.6138L26.9183 37.2672C26.8381 37.3111 26.7711 37.3757 26.7245 37.4543C26.6779 37.533 26.6533 37.6227 26.6533 37.7141C26.6533 37.8055 26.6779 37.8952 26.7245 37.9738C26.7711 38.0524 26.8381 38.1171 26.9183 38.1609L26.9183 38.1609ZM28.7326 37.4359C28.8181 37.3891 28.8883 37.3189 28.9351 37.2334L29.2132 36.7249L29.4913 37.2334C29.5381 37.3189 29.6083 37.3891 29.6938 37.4359L30.2023 37.714L29.6938 37.9921C29.6083 38.0389 29.538 38.1091 29.4913 38.1946L29.2132 38.7031L28.9351 38.1946C28.8883 38.1091 28.8181 38.0389 28.7326 37.9921L28.2241 37.714L28.7326 37.4359Z" fill="#8A5137"/>
<path d="M57.188 55.8139L54.4022 50.0801L53.7877 48.2357L52.8213 48.5576L53.4463 50.4337C53.4533 50.4547 53.4617 50.4753 53.4714 50.4953L56.2206 56.1537V56.5458H57.2392V56.0365C57.2392 55.9594 57.2217 55.8833 57.188 55.8139Z" fill="#8A5137"/>
<path d="M51.6267 51.1338C51.586 51.0063 51.4969 50.9 51.3784 50.8377L49.2978 49.7443L46.8298 46.299C46.9392 46.2424 47.0607 46.2132 47.1838 46.2138C47.307 46.2143 47.4282 46.2447 47.537 46.3023L49.2735 47.2186C49.3651 47.2669 49.4692 47.2862 49.572 47.2738C49.6748 47.2614 49.7714 47.218 49.8489 47.1494C49.9264 47.0807 49.9812 46.9901 50.0059 46.8896C50.0306 46.789 50.024 46.6833 49.9871 46.5866L47.6628 40.494C47.6596 40.4857 47.6562 40.4775 47.6526 40.4693C47.5822 40.3098 47.5683 40.1309 47.6132 39.9624C47.6582 39.7939 47.7593 39.6457 47.8998 39.5424L50.9823 43.6667C50.9849 43.6701 50.9875 43.6735 50.9901 43.6769C51.2417 43.996 51.4322 44.3588 51.552 44.7471C51.5531 44.7507 51.5542 44.7541 51.5554 44.7576L52.482 47.5389L53.4484 47.217L52.5235 44.4408C52.3675 43.9372 52.1204 43.4664 51.7945 43.0519L48.4748 38.6102C48.4119 38.526 48.3244 38.4633 48.2245 38.4308C48.1245 38.3982 48.0169 38.3974 47.9165 38.4284L47.8246 38.4568C47.5853 38.5308 47.3643 38.6543 47.176 38.8195C46.9876 38.9846 46.8362 39.1875 46.7316 39.415C46.6269 39.6426 46.5714 39.8896 46.5686 40.1401C46.5658 40.3905 46.6158 40.6387 46.7153 40.8686L48.5536 45.6869L48.0124 45.4014C47.6816 45.2264 47.3041 45.1601 46.9334 45.2119C46.5628 45.2638 46.2179 45.4311 45.9478 45.6902L45.7881 45.8431C45.6995 45.9279 45.6445 46.0417 45.6332 46.1638C45.6218 46.2859 45.6549 46.4079 45.7263 46.5076L48.54 50.4356C48.5862 50.5002 48.6468 50.553 48.7171 50.5899L50.7196 51.6423L52.146 56.1157V56.5458H53.1647V56.0365C53.1647 55.984 53.1565 55.9318 53.1406 55.8818L51.6267 51.1338Z" fill="#8A5137"/>
<path d="M35.3791 50.4356L38.1928 46.5076C38.2642 46.4079 38.2973 46.2859 38.2859 46.1638C38.2746 46.0418 38.2195 45.9279 38.131 45.8431L37.9712 45.6901C37.7011 45.4311 37.3562 45.2638 36.9856 45.212C36.615 45.1601 36.2375 45.2264 35.9067 45.4014L35.3655 45.687L37.2037 40.8686C37.3033 40.6388 37.3533 40.3905 37.3505 40.1401C37.3477 39.8896 37.2922 39.6426 37.1875 39.415C37.0828 39.1875 36.9314 38.9845 36.743 38.8194C36.5547 38.6543 36.3337 38.5308 36.0944 38.4568L36.0026 38.4285C35.9021 38.3974 35.7945 38.3982 35.6946 38.4308C35.5946 38.4633 35.5072 38.526 35.4443 38.6102L32.1245 43.052C31.7987 43.4665 31.5516 43.9373 31.3956 44.4409L29.5167 50.0803L26.7309 55.8234C26.6973 55.8927 26.6798 55.9687 26.6798 56.0457V56.5459H27.6985V56.1627L30.4477 50.495C30.4574 50.4751 30.4657 50.4547 30.4727 50.4337L32.3637 44.7577C32.3649 44.7542 32.366 44.7508 32.3671 44.7472C32.4869 44.3589 32.6773 43.9961 32.929 43.677C32.9316 43.6736 32.9342 43.6702 32.9368 43.6668L36.0192 39.5425C36.1598 39.6458 36.2609 39.794 36.3058 39.9625C36.3508 40.131 36.3369 40.3099 36.2665 40.4694C36.2629 40.4776 36.2595 40.4858 36.2563 40.4941L33.932 46.5866C33.8951 46.6833 33.8885 46.789 33.9132 46.8896C33.9379 46.9901 33.9926 47.0808 34.0701 47.1494C34.1476 47.2181 34.2442 47.2615 34.347 47.2738C34.4498 47.2862 34.5539 47.2669 34.6455 47.2186L36.382 46.3023C36.4909 46.2447 36.6121 46.2144 36.7352 46.2138C36.8584 46.2132 36.9798 46.2424 37.0892 46.299L34.6212 49.7443L32.5407 50.8377C32.4222 50.9 32.333 51.0064 32.2924 51.1338L30.7785 55.8818C30.7625 55.9318 30.7544 55.984 30.7544 56.0365V56.5459H31.7731V56.1157L33.1994 51.6423L35.2019 50.5899C35.2722 50.553 35.3329 50.5002 35.3791 50.4356Z" fill="#8A5137"/>
<path d="M45.0337 51.5877C45.0587 51.6788 45.1086 51.761 45.1776 51.8254C45.2467 51.8897 45.3323 51.9336 45.4249 51.9521L50.0088 52.8689L50.2086 51.87L45.9326 51.0148L45.25 48.5325C45.2745 48.5127 45.2989 48.4927 45.3233 48.4724C45.5561 48.5285 45.7947 48.5568 46.0341 48.5565V47.5379C44.8917 47.5379 43.9968 46.573 43.9968 45.3412C43.9947 45.0477 44.0506 44.7566 44.1613 44.4847C44.2719 44.2128 44.4352 43.9655 44.6416 43.7568C44.7267 43.6711 44.7786 43.558 44.7881 43.4376C44.7975 43.3172 44.7638 43.1973 44.693 43.0994C44.4148 42.7137 44.2663 42.2496 44.2687 41.774C44.2687 40.8962 44.7658 40.1043 45.5352 39.7564C45.6049 39.7249 45.6666 39.6781 45.7157 39.6194C45.7649 39.5608 45.8002 39.4919 45.819 39.4177C45.8378 39.3436 45.8397 39.2661 45.8245 39.1912C45.8093 39.1162 45.7774 39.0456 45.7312 38.9846C45.5967 38.808 45.5241 38.592 45.5248 38.37C45.5248 38.1885 45.5732 38.0103 45.6652 37.8538C45.7572 37.6973 45.8893 37.5683 46.0479 37.48C46.2065 37.3917 46.3858 37.3474 46.5672 37.3517C46.7487 37.3559 46.9257 37.4086 47.08 37.5043C47.1611 37.5547 47.2548 37.5813 47.3503 37.581C47.4458 37.5808 47.5394 37.5537 47.6203 37.5029C47.9418 37.2998 48.3142 37.1918 48.6945 37.1915C49.8492 37.1915 50.7886 38.1769 50.7886 39.3881C50.7894 39.7796 50.689 40.1646 50.4972 40.5059L51.3838 41.0076C51.6807 40.4794 51.8265 39.8797 51.8053 39.2741C51.7841 38.6686 51.5966 38.0806 51.2635 37.5744C51.9156 36.4366 52.1245 35.098 51.8502 33.8155C51.576 32.5331 50.8378 31.397 49.7773 30.6255L49.629 30.5176C49.2852 30.2676 48.9323 30.0358 48.57 29.8222C48.476 28.7738 47.7628 27.8145 46.5379 27.1C45.3068 26.3818 43.6808 25.9863 41.9595 25.9863C40.2382 25.9863 38.6122 26.3818 37.3811 27.1C36.1562 27.8145 35.443 28.7738 35.349 29.8222C34.9871 30.0357 34.6341 30.2675 34.29 30.5176L34.1418 30.6255C33.5092 31.0839 32.9863 31.6769 32.6106 32.3619L33.503 32.8532C33.8067 32.2994 34.2295 31.8199 34.741 31.4493L34.8892 31.3414C36.9438 29.8472 39.419 29.0423 41.9595 29.0423C44.5 29.0423 46.9752 29.8472 49.0298 31.3414L49.1781 31.4493C49.9918 32.0413 50.5723 32.8999 50.8185 33.8756C51.0648 34.8513 50.9613 35.8824 50.526 36.7897C50.1111 36.4753 49.6224 36.2726 49.1068 36.201C48.6955 34.927 48.024 33.9013 47.1074 33.1486C46.0617 32.2897 44.6874 31.7802 43.0227 31.6339L42.9336 32.6487C45.5672 32.88 47.2449 34.058 48.0447 36.2436C47.7998 36.2976 47.5624 36.3817 47.3382 36.494C46.9703 36.3387 46.5649 36.2948 46.1723 36.3677C45.7797 36.4407 45.4171 36.6274 45.1297 36.9046C44.8422 37.1818 44.6425 37.5373 44.5553 37.927C44.4681 38.3167 44.4973 38.7234 44.6392 39.0967C43.9823 39.5613 43.5186 40.2507 43.3359 41.0343C43.1532 41.818 43.2643 42.6413 43.648 43.3486C43.2103 43.9203 42.9747 44.6212 42.9782 45.3412C42.9782 46.4531 43.4887 47.4164 44.2819 47.9915C43.4617 48.5853 42.6545 48.9059 41.9595 48.9059C41.2646 48.9059 40.4573 48.5853 39.6371 47.9915C40.4304 47.4164 40.9409 46.4531 40.9409 45.3412C40.9443 44.6212 40.7087 43.9203 40.271 43.3486C40.6548 42.6414 40.7658 41.818 40.5831 41.0344C40.4005 40.2508 39.9368 39.5614 39.2798 39.0968C39.4221 38.7235 39.4516 38.3166 39.3646 37.9267C39.2775 37.5368 39.0778 37.1811 38.7902 36.9038C38.5027 36.6264 38.1399 36.4398 37.7471 36.3669C37.3543 36.2941 36.9488 36.3383 36.5809 36.494C36.3569 36.3818 36.1198 36.2977 35.8751 36.2437C36.2723 35.1666 36.893 34.3232 37.7253 33.7315C38.7744 32.9857 40.199 32.6075 41.9595 32.6075V31.5889C39.9833 31.5889 38.3601 32.0305 37.135 32.9013C36.0507 33.672 35.2705 34.781 34.8123 36.201C34.2966 36.2726 33.8079 36.4753 33.393 36.7898C32.9407 35.8466 32.8472 34.7711 33.13 33.764L32.1493 33.4884C31.9582 34.1689 31.9045 34.8808 31.9914 35.5823C32.0783 36.2838 32.3041 36.961 32.6555 37.5744C32.3224 38.0806 32.135 38.6686 32.1138 39.2741C32.0925 39.8796 32.2383 40.4793 32.5352 41.0075L33.4218 40.5059C33.23 40.1646 33.1296 39.7796 33.1304 39.3881C33.1304 38.1769 34.0698 37.1915 35.2246 37.1915C35.6048 37.1918 35.9773 37.2998 36.2988 37.5029C36.3796 37.5537 36.4732 37.5808 36.5687 37.5811C36.6642 37.5813 36.7579 37.5547 36.839 37.5043C37.0411 37.379 37.2807 37.3283 37.5163 37.3611C37.7518 37.3939 37.9684 37.5081 38.1286 37.6839C38.2888 37.8597 38.3824 38.086 38.3932 38.3235C38.404 38.5611 38.3314 38.7949 38.1879 38.9846C38.1416 39.0455 38.1097 39.1161 38.0945 39.1911C38.0793 39.2661 38.0812 39.3435 38.1 39.4176C38.1189 39.4918 38.1542 39.5607 38.2033 39.6194C38.2524 39.678 38.3141 39.7248 38.3838 39.7564C39.1532 40.1043 39.6503 40.8963 39.6503 41.7739C39.6528 42.2495 39.5042 42.7136 39.226 43.0994C39.1552 43.1973 39.1216 43.3171 39.131 43.4375C39.1404 43.5579 39.1923 43.6711 39.2774 43.7568C39.4839 43.9655 39.6471 44.2128 39.7578 44.4847C39.8684 44.7566 39.9243 45.0477 39.9222 45.3412C39.9222 46.573 39.0273 47.5379 37.8849 47.5379V48.5565C38.1243 48.5568 38.3629 48.5286 38.5956 48.4725C38.6201 48.4928 38.6445 48.5128 38.669 48.5327L37.9864 51.0149L33.7104 51.8701L33.9102 52.869L38.4941 51.9522C38.5867 51.9337 38.6723 51.8898 38.7414 51.8254C38.8105 51.7611 38.8603 51.6788 38.8854 51.5878L39.553 49.1601C40.38 49.6634 41.196 49.9246 41.9595 49.9246C42.723 49.9246 43.5391 49.6634 44.3661 49.16L45.0337 51.5877ZM41.9595 28.0236C40.1159 28.0203 38.2928 28.4101 36.6118 29.1671C37.3318 27.9305 39.4898 27.005 41.9595 27.005C44.4292 27.005 46.5872 27.9305 47.3072 29.1671C45.6262 28.4101 43.8031 28.0202 41.9595 28.0236Z" fill="#8A5137"/>
<path d="M45.0155 53.0284V52.9805H43.9968V53.0284C43.9958 53.4205 44.1344 53.8002 44.3879 54.0994C44.6413 54.3986 44.993 54.5978 45.38 54.6612L50.5343 55.5203L50.7018 54.5154L45.5475 53.6564C45.3986 53.632 45.2634 53.5554 45.1659 53.4403C45.0684 53.3252 45.0151 53.1792 45.0155 53.0284Z" fill="#8A5137"/>
<path d="M38.9036 53.0284C38.904 53.1792 38.8507 53.3252 38.7532 53.4403C38.6557 53.5554 38.5204 53.632 38.3716 53.6564L33.2173 54.5154L33.3848 55.5203L38.539 54.6612C38.926 54.5978 39.2777 54.3986 39.5312 54.0994C39.7847 53.8002 39.9233 53.4205 39.9223 53.0284V52.9805H38.9036V53.0284Z" fill="#8A5137"/>
</svg>
