<svg width="86" height="86" viewBox="0 0 86 86" fill="none" xmlns="http://www.w3.org/2000/svg">
<circle cx="43" cy="43" r="42.5" fill="white" stroke="#8A5137"/>
<g clip-path="url(#clip0)">
<path d="M50.3279 53.9618V50.5229C50.3279 47.679 48.72 45.0639 46.2047 43.772C48.0293 42.8354 49.4042 41.1928 50.0018 39.2205C50.07 38.9953 49.9427 38.7573 49.7174 38.689C49.4922 38.6207 49.2542 38.748 49.1859 38.9733C48.6277 40.8158 47.3053 42.3342 45.5577 43.1391L45.0242 43.3849C44.8731 43.4545 44.7763 43.6056 44.7763 43.772C44.7763 43.9384 44.8731 44.0895 45.0242 44.1591L45.5578 44.405C47.9377 45.5012 49.4755 47.9027 49.4755 50.5229V53.8602H48.1684V52.5227C48.1684 52.2873 47.9776 52.0965 47.7422 52.0965C47.5069 52.0965 47.316 52.2873 47.316 52.5227V53.8602H39.0099V50.5229C39.0099 48.7427 40.0547 47.111 41.6717 46.3661L43.163 45.6792L44.6543 46.3663C46.2713 47.111 47.3161 48.7426 47.3161 50.5229V50.7064C47.3161 50.9418 47.5069 51.1326 47.7423 51.1326C47.9777 51.1326 48.1685 50.9418 48.1685 50.7064V50.5229C48.1685 48.411 46.9291 46.4755 45.011 45.592L43.3413 44.8229C43.2281 44.7707 43.0978 44.7707 42.9847 44.8229L41.3151 45.592C39.397 46.4755 38.1576 48.411 38.1576 50.5229V53.8602H36.8505V50.5229C36.8505 47.9026 38.3884 45.5011 40.7683 44.4049L41.3018 44.1591C41.453 44.0895 41.5497 43.9384 41.5497 43.772C41.5497 43.6056 41.453 43.4545 41.3018 43.3849L40.7682 43.139C38.8861 42.2721 37.5271 40.619 37.04 38.6037C36.9846 38.3749 36.7541 38.2345 36.5255 38.2896C36.2968 38.345 36.1561 38.5753 36.2114 38.8041C36.7348 40.9693 38.1516 42.7634 40.1211 43.7721C37.6061 45.064 35.9981 47.6791 35.9981 50.5229V53.9393C35.5428 54.1121 35.2178 54.5516 35.2178 55.0667V55.6644C35.2178 56.3297 35.759 56.8709 36.4243 56.8709H49.8449C50.5102 56.8709 51.0514 56.3297 51.0514 55.6644V55.0667C51.0514 54.5732 50.7532 54.1486 50.3279 53.9618ZM50.1989 55.6644C50.1989 55.8597 50.0401 56.0185 49.8449 56.0185H36.4242C36.229 56.0185 36.0701 55.8596 36.0701 55.6644V55.0667C36.0701 54.8714 36.229 54.7126 36.4242 54.7126H49.8449C50.0401 54.7126 50.1989 54.8715 50.1989 55.0667V55.6644Z" fill="#8A5137"/>
<path d="M35.998 33.6047V36.8878C35.998 37.1232 36.1888 37.314 36.4242 37.314C36.6595 37.314 36.8504 37.1232 36.8504 36.8878V33.6839H38.1574V37.0213C38.1574 39.1331 39.3968 41.0686 41.3149 41.9521L42.9846 42.7212C43.0412 42.7473 43.102 42.7603 43.1629 42.7603C43.2237 42.7603 43.2847 42.7473 43.3412 42.7212L45.0107 41.9521C46.3565 41.3323 47.4027 40.168 47.8811 38.758C47.9567 38.5351 47.8373 38.2931 47.6144 38.2174C47.3916 38.142 47.1495 38.2612 47.0739 38.4841C46.6703 39.6736 45.7883 40.6554 44.6541 41.1779L43.1628 41.8648L41.6714 41.1778C40.0545 40.433 39.0097 38.8015 39.0097 37.0212V33.6839H43.5986C43.834 33.6839 44.0248 33.4931 44.0248 33.2577C44.0248 33.0222 43.834 32.8315 43.5986 32.8315H36.4242C36.2289 32.8315 36.0701 32.6726 36.0701 32.4774V31.8797C36.0701 31.6845 36.2289 31.5257 36.4242 31.5257H43.8093C44.0447 31.5257 44.2355 31.3349 44.2355 31.0995C44.2355 30.864 44.0447 30.6733 43.8093 30.6733H36.4242C35.7589 30.6733 35.2177 31.2145 35.2177 31.8797V32.4774C35.2177 32.9925 35.5427 33.432 35.998 33.6047Z" fill="#8A5137"/>
<path d="M54.7132 31.2737C54.6427 31.0491 54.4037 30.924 54.1789 30.9946C53.9544 31.065 53.8294 31.3042 53.8998 31.5288C54.0268 31.9338 54.0912 32.3561 54.0912 32.7839C54.0912 35.0941 52.2117 36.9735 49.9016 36.9735C47.5914 36.9735 45.712 35.0941 45.712 32.7839C45.712 30.4737 47.5915 28.5944 49.9016 28.5944C51.1366 28.5944 52.3031 29.1364 53.1021 30.0816C53.254 30.2613 53.5229 30.2839 53.7027 30.1319C53.8824 29.98 53.905 29.7111 53.753 29.5313C52.7917 28.3942 51.388 27.7419 49.9016 27.7419C47.1215 27.7419 44.8596 30.0038 44.8596 32.784C44.8596 35.5641 47.1215 37.826 49.9016 37.826C52.6818 37.826 54.9437 35.5641 54.9437 32.784C54.9437 32.2695 54.8662 31.7613 54.7132 31.2737Z" fill="#8A5137"/>
<path d="M49.9015 30.0433C49.6662 30.0433 49.4753 30.234 49.4753 30.4695V32.7021C49.4753 32.8687 49.5402 33.0252 49.658 33.1432L51.2368 34.7219C51.32 34.8051 51.4291 34.8467 51.5381 34.8467C51.6472 34.8467 51.7563 34.8051 51.8395 34.7218C52.0059 34.5554 52.0059 34.2856 51.8395 34.1191L50.3277 32.6074V30.4695C50.3278 30.234 50.137 30.0433 49.9015 30.0433Z" fill="#8A5137"/>
</g>
<defs>
<clipPath id="clip0">
<rect width="29.129" height="29.129" fill="white" transform="translate(30.5161 27.7419)"/>
</clipPath>
</defs>
</svg>
