<svg width="86" height="86" viewBox="0 0 86 86" fill="none" xmlns="http://www.w3.org/2000/svg">
<circle cx="43" cy="43" r="42.5" fill="white" stroke="#8A5137"/>
<g clip-path="url(#clip0)">
<path d="M30.4645 45.9773L32.1748 47.2721C32.1891 47.2835 32.2031 47.2951 32.2177 47.3061L33.3223 48.1409C33.3223 48.1409 37.7047 51.4576 37.7076 51.4597C38.101 51.7547 38.5893 51.9295 39.1177 51.9295H44.0358C44.3102 51.9295 44.5326 51.7072 44.5326 51.4328C44.5326 51.1584 44.3102 50.936 44.0358 50.936H39.1177C38.3666 50.936 37.7555 50.325 37.7555 49.574C37.7555 48.8229 38.3666 48.2119 39.1177 48.2119H45.9629C46.2373 48.2119 46.4597 47.9895 46.4597 47.7152C46.4597 47.4408 46.2373 47.2184 45.9629 47.2184H43.5672V44.302C43.5672 44.0276 43.3448 43.8053 43.0705 43.8053C42.7961 43.8053 42.5737 44.0276 42.5737 44.302V47.2184H39.1177C39.101 47.2184 39.0846 47.2194 39.068 47.2197V32.6417H42.5738V42.1851C42.5738 42.4595 42.7962 42.6818 43.0705 42.6818C43.3449 42.6818 43.5673 42.4595 43.5673 42.1851V32.5945C44.3192 32.4144 44.8799 31.7371 44.8799 30.9308V26.1804C44.8799 24.9782 43.9017 24 42.6994 24H29.7824C29.508 24 29.2856 24.2223 29.2856 24.4967C29.2856 24.7711 29.508 24.9934 29.7824 24.9934H42.6994C43.3539 24.9934 43.8864 25.5259 43.8864 26.1804V28.9967H37.4846V27.5971C37.4846 27.3228 37.2622 27.1004 36.9879 27.1004H35.1969C34.9225 27.1004 34.7001 27.3228 34.7001 27.5971C34.7001 27.8715 34.9225 28.0939 35.1969 28.0939H36.4912V30.9308C36.4912 31.8312 37.1906 32.5709 38.0745 32.6364V43.8824L37.7211 43.6153C36.9906 43.0635 35.9473 43.2087 35.3954 43.9391C35.2526 44.1281 35.1568 44.3383 35.1054 44.5553L34.5903 44.1661C33.7245 43.512 32.488 43.6842 31.834 44.5498C31.6252 44.8261 31.4961 45.1451 31.4527 45.4794L31.0641 45.1852C30.2616 44.5776 29.1383 44.6279 28.393 45.3043C27.9629 45.6947 27.7192 46.2295 27.7069 46.8103C27.6946 47.391 27.9153 47.9356 28.3285 48.3439L31.2518 51.2327C31.447 51.4255 31.7614 51.4235 31.9542 51.2285C32.1471 51.0334 32.1452 50.7189 31.9501 50.5261L29.0268 47.6373C28.8097 47.4228 28.6937 47.1365 28.7001 46.8313C28.7066 46.5262 28.8346 46.245 29.0607 46.0399C29.4525 45.6843 30.0428 45.6581 30.4645 45.9773ZM37.4846 30.9308V29.9901H43.8864V30.9308C43.8864 31.3264 43.5645 31.6482 43.169 31.6482H38.2021C37.8065 31.6482 37.4846 31.3264 37.4846 30.9308ZM36.1881 44.5381C36.4098 44.2447 36.8289 44.1865 37.1222 44.408L38.0745 45.1276V46.799L36.3102 45.4659C36.0239 45.2424 35.9684 44.8288 36.1881 44.5381ZM32.6267 45.1487C32.9505 44.7201 33.5628 44.6349 33.9914 44.9587L35.7037 46.2526C35.7089 46.2566 35.7138 46.2609 35.7191 46.2649L37.6562 47.7286C37.131 48.1454 36.7874 48.7809 36.7641 49.4963L33.9376 47.3606L32.7966 46.4969C32.3861 46.1691 32.308 45.5704 32.6267 45.1487Z" fill="#8A5137"/>
<path d="M51.2935 57.1219L48.7894 55.0339C48.7002 54.9594 48.5876 54.9187 48.4713 54.9187H37.2615C36.7027 54.9187 36.1762 54.7024 35.7788 54.3097L33.458 52.0164C33.2628 51.8235 32.9484 51.8255 32.7556 52.0206C32.5628 52.2157 32.5646 52.5301 32.7597 52.723L35.0806 55.0164C35.6651 55.594 36.4396 55.9121 37.2615 55.9121H48.2914L50.6573 57.8848C50.7501 57.9623 50.8629 58.0001 50.9751 58.0001C51.1173 58.0001 51.2586 57.9393 51.3568 57.8215C51.5326 57.6108 51.5042 57.2976 51.2935 57.1219Z" fill="#8A5137"/>
<path d="M33.08 27.1004H29.7824C29.508 27.1004 29.2856 27.3227 29.2856 27.5971C29.2856 27.8715 29.508 28.0939 29.7824 28.0939H33.08C33.3544 28.0939 33.5768 27.8715 33.5768 27.5971C33.5768 27.3227 33.3544 27.1004 33.08 27.1004Z" fill="#8A5137"/>
<path d="M41.6408 37.7908V34.4545C41.6408 34.1801 41.4184 33.9578 41.1441 33.9578C40.8697 33.9578 40.6473 34.1801 40.6473 34.4545V37.7908C40.6473 38.0652 40.8697 38.2875 41.1441 38.2875C41.4184 38.2875 41.6408 38.0651 41.6408 37.7908Z" fill="#8A5137"/>
<path d="M39.959 43.7765V44.8276C39.959 45.102 40.1814 45.3243 40.4557 45.3243C40.73 45.3243 40.9524 45.102 40.9524 44.8276V43.7765C40.9524 43.5021 40.73 43.2798 40.4557 43.2798C40.1814 43.2798 39.959 43.5021 39.959 43.7765Z" fill="#8A5137"/>
<path d="M46.1257 37.0997C46.5132 37.2386 47.5445 37.6083 48.3362 37.6083C48.5182 37.6083 48.6876 37.5887 48.8335 37.5423C49.8731 37.212 50.45 36.0974 50.1196 35.0577C49.7892 34.0182 48.6746 33.4412 47.635 33.7717C47.4419 33.833 46.8544 34.0198 45.6796 35.6964C45.5125 35.9351 45.4671 36.2309 45.5554 36.5084C45.6435 36.7858 45.8513 37.0013 46.1257 37.0997ZM47.936 34.7184C48.4535 34.554 49.0084 34.8412 49.1729 35.3587C49.2526 35.6094 49.2299 35.8761 49.1089 36.1097C48.988 36.3433 48.7833 36.5159 48.5326 36.5956C48.325 36.6613 47.6813 36.5941 46.5442 36.1941C47.2419 35.211 47.7285 34.7844 47.936 34.7184Z" fill="#8A5137"/>
<path d="M48.0436 39.5212C47.893 39.5117 47.4355 39.4847 46.2397 40.2886C46.0342 40.4267 45.9077 40.6477 45.8928 40.8948C45.8779 41.142 45.977 41.3766 46.1646 41.5385C47.2556 42.4799 47.713 42.5075 47.8634 42.5166H47.8634C47.8939 42.5184 47.9242 42.5193 47.9544 42.5193C48.7408 42.5193 49.4033 41.9043 49.4511 41.109C49.4752 40.7089 49.342 40.3235 49.0762 40.0235C48.8103 39.7236 48.4436 39.5452 48.0436 39.5212ZM48.4595 41.0493C48.4427 41.3282 48.2018 41.5421 47.9235 41.5249C47.8527 41.5182 47.5646 41.401 47.0244 40.963C47.6136 40.5926 47.914 40.5128 47.984 40.5129C48.1191 40.521 48.243 40.5813 48.3328 40.6826C48.4226 40.784 48.4676 40.9141 48.4595 41.0493Z" fill="#8A5137"/>
<path d="M32.5583 36.4168C32.3685 36.8585 32.3621 37.3477 32.5403 37.7941C32.7184 38.2406 33.0597 38.591 33.5014 38.7807C33.5909 38.8192 33.7776 38.8995 34.1985 38.8995C34.569 38.8995 35.121 38.8373 35.9477 38.6296C36.2144 38.5626 36.4297 38.3794 36.5382 38.1268C36.6467 37.8743 36.6316 37.592 36.4965 37.3524C35.6028 35.7662 35.0906 35.5461 34.9223 35.4737C34.4807 35.284 33.9914 35.2775 33.545 35.4557C33.0985 35.6338 32.748 35.9752 32.5583 36.4168ZM33.4711 36.809C33.556 36.6111 33.713 36.4582 33.9131 36.3784C34.0098 36.3398 34.1109 36.3206 34.212 36.3206C34.32 36.3206 34.4279 36.3426 34.5301 36.3865C34.6619 36.4431 35.0206 36.7852 35.5529 37.7035C34.5203 37.9494 34.0255 37.9247 33.8936 37.868C33.6958 37.783 33.5429 37.626 33.463 37.4259C33.3832 37.226 33.386 37.0069 33.4711 36.809Z" fill="#8A5137"/>
<path d="M58.096 52.283L54.0094 49.1996C52.3161 47.922 50.2152 47.2184 48.0939 47.2184H48.0799C47.8055 47.2184 47.5831 47.4407 47.5831 47.7151C47.5831 47.9895 47.8055 48.2118 48.0799 48.2118H48.0939C50.0007 48.2118 51.889 48.8443 53.411 49.9927L57.4977 53.0761C57.5873 53.1437 57.6923 53.1763 57.7964 53.1763C57.947 53.1763 58.0957 53.1082 58.1934 52.9788C58.3586 52.7597 58.315 52.4482 58.096 52.283Z" fill="#8A5137"/>
</g>
<defs>
<clipPath id="clip0">
<rect width="34" height="34" fill="white" transform="translate(26 24)"/>
</clipPath>
</defs>
</svg>
